<mxfile host="app.diagrams.net" modified="2022-06-02T00:44:50.630Z" agent="5.0 (Windows NT 10.0; Win64; x64) AppleWebKit/537.36 (KHTML, like Gecko) Chrome/101.0.4951.64 Safari/537.36 Edg/101.0.1210.53" etag="z7eE9bNXOjLBppAZRXqN" version="18.1.3" type="github">
  <diagram id="uv6Fi721Us2nEqEC8rS7" name="Page-1">
    <mxGraphModel dx="2489" dy="762" grid="1" gridSize="10" guides="1" tooltips="1" connect="1" arrows="1" fold="1" page="1" pageScale="1" pageWidth="827" pageHeight="1169" math="0" shadow="0">
      <root>
        <mxCell id="0" />
        <mxCell id="1" parent="0" />
        <mxCell id="1dWwz0zmLUQ1FfwM1sw5-1" value="&amp;lt;skurlast&amp;gt;:&lt;br&gt;{[&quot;Varenavn&quot;], [&quot;nr]&quot;}" style="shape=cube;whiteSpace=wrap;html=1;boundedLbl=1;backgroundOutline=1;darkOpacity=0.05;darkOpacity2=0.1;" parent="1" vertex="1">
          <mxGeometry x="660" y="1069" width="147" height="100" as="geometry" />
        </mxCell>
        <mxCell id="IzXq2JaE3QLaXGa_2l5n-49" value="" style="whiteSpace=wrap;html=1;" vertex="1" parent="1">
          <mxGeometry x="20" y="190" width="180" height="110" as="geometry" />
        </mxCell>
        <mxCell id="IzXq2JaE3QLaXGa_2l5n-50" value="" style="endArrow=classic;html=1;rounded=0;startArrow=none;" edge="1" parent="1" source="IzXq2JaE3QLaXGa_2l5n-54">
          <mxGeometry relative="1" as="geometry">
            <mxPoint x="-170" y="245" as="sourcePoint" />
            <mxPoint x="20" y="244.66000000000003" as="targetPoint" />
          </mxGeometry>
        </mxCell>
        <mxCell id="IzXq2JaE3QLaXGa_2l5n-55" value="" style="endArrow=classic;html=1;rounded=0;" edge="1" parent="1">
          <mxGeometry relative="1" as="geometry">
            <mxPoint x="200" y="244.99999999999997" as="sourcePoint" />
            <mxPoint x="390" y="245" as="targetPoint" />
          </mxGeometry>
        </mxCell>
        <mxCell id="IzXq2JaE3QLaXGa_2l5n-56" value="m2" style="edgeLabel;html=1;align=center;verticalAlign=middle;resizable=0;points=[];" vertex="1" connectable="0" parent="IzXq2JaE3QLaXGa_2l5n-55">
          <mxGeometry x="-0.2137" y="3" relative="1" as="geometry">
            <mxPoint x="15" y="3" as="offset" />
          </mxGeometry>
        </mxCell>
        <mxCell id="IzXq2JaE3QLaXGa_2l5n-54" value="m1" style="text;html=1;align=center;verticalAlign=middle;resizable=0;points=[];autosize=1;strokeColor=none;fillColor=none;" vertex="1" parent="1">
          <mxGeometry x="-105" y="235" width="30" height="20" as="geometry" />
        </mxCell>
        <mxCell id="IzXq2JaE3QLaXGa_2l5n-57" value="" style="endArrow=none;html=1;rounded=0;" edge="1" parent="1" target="IzXq2JaE3QLaXGa_2l5n-54">
          <mxGeometry relative="1" as="geometry">
            <mxPoint x="-170" y="245" as="sourcePoint" />
            <mxPoint x="20" y="244.66000000000008" as="targetPoint" />
          </mxGeometry>
        </mxCell>
        <mxCell id="IzXq2JaE3QLaXGa_2l5n-58" value="Flow" style="ellipse;whiteSpace=wrap;html=1;" vertex="1" parent="1">
          <mxGeometry x="390" y="205" width="120" height="80" as="geometry" />
        </mxCell>
        <mxCell id="IzXq2JaE3QLaXGa_2l5n-59" value="" style="rounded=0;whiteSpace=wrap;html=1;" vertex="1" parent="1">
          <mxGeometry x="340" y="450" width="120" height="60" as="geometry" />
        </mxCell>
        <mxCell id="IzXq2JaE3QLaXGa_2l5n-60" value="" style="rounded=0;whiteSpace=wrap;html=1;" vertex="1" parent="1">
          <mxGeometry x="530" y="450" width="120" height="60" as="geometry" />
        </mxCell>
        <mxCell id="IzXq2JaE3QLaXGa_2l5n-61" value="" style="endArrow=classic;html=1;rounded=0;entryX=0.5;entryY=1;entryDx=0;entryDy=0;" edge="1" parent="1" source="IzXq2JaE3QLaXGa_2l5n-49" target="IzXq2JaE3QLaXGa_2l5n-58">
          <mxGeometry relative="1" as="geometry">
            <mxPoint x="180" y="380" as="sourcePoint" />
            <mxPoint x="450" y="300" as="targetPoint" />
            <Array as="points">
              <mxPoint x="110" y="370" />
              <mxPoint x="450" y="370" />
            </Array>
          </mxGeometry>
        </mxCell>
        <mxCell id="IzXq2JaE3QLaXGa_2l5n-62" value="m3" style="edgeLabel;html=1;align=center;verticalAlign=middle;resizable=0;points=[];" vertex="1" connectable="0" parent="IzXq2JaE3QLaXGa_2l5n-61">
          <mxGeometry x="-0.2137" y="3" relative="1" as="geometry">
            <mxPoint x="55" y="13" as="offset" />
          </mxGeometry>
        </mxCell>
        <mxCell id="IzXq2JaE3QLaXGa_2l5n-63" value="m1 + m2 + m3 =&amp;nbsp;&amp;nbsp;&lt;br&gt;&lt;br&gt;" style="text;html=1;align=center;verticalAlign=middle;resizable=0;points=[];autosize=1;strokeColor=none;fillColor=none;" vertex="1" parent="1">
          <mxGeometry x="-615" y="195" width="110" height="30" as="geometry" />
        </mxCell>
        <mxCell id="IzXq2JaE3QLaXGa_2l5n-64" value="" style="rhombus;whiteSpace=wrap;html=1;" vertex="1" parent="1">
          <mxGeometry x="610" y="205" width="80" height="80" as="geometry" />
        </mxCell>
      </root>
    </mxGraphModel>
  </diagram>
</mxfile>
